<svg width="59" height="58" viewBox="0 0 59 58" fill="none" xmlns="http://www.w3.org/2000/svg">
<mask id="mask0_191_486" style="mask-type:alpha" maskUnits="userSpaceOnUse" x="0" y="0" width="59" height="58">
<rect x="0.838623" y="0.043457" width="57.6" height="57.6" fill="#D9D9D9"/>
</mask>
<g mask="url(#mask0_191_486)">
<path d="M9.83868 51.4634V43.7834H18.4787L12.8987 24.7634C11.0987 24.2034 9.66868 23.2534 8.60868 21.9134C7.54868 20.5734 7.01868 18.8034 7.01868 16.6034C7.01868 14.3634 7.83868 12.4134 9.47868 10.7534C11.1187 9.09338 13.0587 8.26338 15.2987 8.26338C17.4187 8.26338 19.1987 8.84338 20.6387 10.0034C22.0787 11.1634 23.0587 12.7634 23.5787 14.8034H30.1187V11.2634C30.1187 10.5834 30.3587 10.0034 30.8387 9.52338C31.3187 9.04338 31.8987 8.80338 32.5787 8.80338C32.9787 8.80338 33.3287 8.94338 33.6287 9.22338C33.9287 9.50338 34.0987 9.84338 34.1387 10.2434L38.2187 6.34338C38.6587 5.94338 39.1887 5.67338 39.8087 5.53338C40.4287 5.39338 41.0587 5.46338 41.6987 5.74338L51.1787 10.3034C51.7387 10.5834 52.1187 11.0034 52.3187 11.5634C52.5187 12.1234 52.4587 12.7034 52.1387 13.3034C51.8587 13.8234 51.4387 14.1634 50.8787 14.3234C50.3187 14.4834 49.7787 14.4034 49.2587 14.0834L40.4387 9.76338L35.0987 15.1634V17.6834L40.4387 23.3834L49.2587 19.1234C49.8587 18.8434 50.4087 18.7634 50.9087 18.8834C51.4087 19.0034 51.8187 19.3234 52.1387 19.8434C52.4587 20.4434 52.5187 21.0434 52.3187 21.6434C52.1187 22.2434 51.7187 22.6834 51.1187 22.9634L42.1187 27.2234C41.3587 27.6234 40.6487 27.8034 39.9887 27.7634C39.3287 27.7234 38.7387 27.4434 38.2187 26.9234L34.1387 23.0234C34.0987 23.5834 33.9387 23.9634 33.6587 24.1634C33.3787 24.3634 33.0187 24.4634 32.5787 24.4634C31.8987 24.4634 31.3187 24.2234 30.8387 23.7434C30.3587 23.2634 30.1187 22.6834 30.1187 22.0034V18.4034H23.4587C23.3787 19.0834 23.1287 19.8534 22.7087 20.7134C22.2887 21.5734 21.8387 22.1634 21.3587 22.4834L32.3387 43.7834H43.3787V51.4634H9.83868ZM15.2987 19.9634C16.2587 19.9634 17.0587 19.6434 17.6987 19.0034C18.3387 18.3634 18.6587 17.5634 18.6587 16.6034C18.6587 15.6434 18.3387 14.8434 17.6987 14.2034C17.0587 13.5634 16.2587 13.2434 15.2987 13.2434C14.3387 13.2434 13.5387 13.5634 12.8987 14.2034C12.2587 14.8434 11.9387 15.6434 11.9387 16.6034C11.9387 17.5634 12.2587 18.3634 12.8987 19.0034C13.5387 19.6434 14.3387 19.9634 15.2987 19.9634Z" fill="#042F2E"/>
</g>
</svg>
